<svg xmlns="http://www.w3.org/2000/svg" viewBox="0 0 512 512" role="img" aria-labelledby="title desc">
  <title id="title">Cihaz Servisi Uygulama İkonu</title>
  <desc id="desc">Mavi ve turkuaz geçişli zeminde telefon, dişli ve anahtar simgesi.</desc>
  <defs>
    <linearGradient id="bg" x1="0" y1="0" x2="1" y2="1">
      <stop offset="0" stop-color="#087BFF"/>
      <stop offset="1" stop-color="#12D8C8"/>
    </linearGradient>
    <linearGradient id="tool" x1="0" y1="0" x2="1" y2="1">
      <stop offset="0" stop-color="#11A7FF"/>
      <stop offset="1" stop-color="#005DCC"/>
    </linearGradient>
    <filter id="shadow" x="-20%" y="-20%" width="140%" height="140%">
      <feDropShadow dx="0" dy="10" stdDeviation="12" flood-color="#003A78" flood-opacity=".28"/>
    </filter>
  </defs>

  <rect x="32" y="32" width="448" height="448" rx="108" fill="url(#bg)"/>

  <g>
    <rect x="118" y="95" width="210" height="322" rx="38" fill="#fff"/>
    <rect x="139" y="133" width="168" height="229" rx="10" fill="#0B78D6"/>
    <rect x="187" y="111" width="72" height="10" rx="5" fill="#0B78D6"/>
    <circle cx="223" cy="392" r="10" fill="#0B78D6"/>

    <g transform="translate(285 305)">
      <g fill="#fff">
        <rect x="-22" y="-94" width="44" height="188" rx="10"/>
        <rect x="-94" y="-22" width="188" height="44" rx="10"/>
        <rect x="-71" y="-71" width="142" height="142" rx="16" transform="rotate(45)"/>
        <circle r="76"/>
      </g>
      <circle r="39" fill="#0B78D6"/>
    </g>

    <g transform="translate(315 341) rotate(-39)">
      <path d="M-98 8h145l18 18-18 18H-98c-15 0-27-12-27-27S-113 8-98 8Z" fill="url(#tool)" stroke="#004FAD" stroke-width="7"/>
      <circle cx="-98" cy="26" r="10" fill="#BFEFFF"/>
      <path d="M52 4c14-20 42-29 64-18l-24 25 5 24 24 5 25-24c11 23 2 50-18 64-22 15-52 11-70-8-18-18-22-48-6-68Z" fill="#fff" stroke="#004FAD" stroke-width="7"/>
      <rect x="-58" y="18" width="74" height="11" rx="5.5" fill="#0BD1E9" opacity=".9"/>
    </g>
  </g>
</svg>
